<svg id="Camada_1" data-name="Camada 1" xmlns="http://www.w3.org/2000/svg" viewBox="0 0 841.89 595.28"><defs><style>.cls-1{fill:#fafafa;}.cls-2{fill:#fe5000;}</style></defs><path class="cls-1" d="M148.33,300.93,132.12,321A3.24,3.24,0,0,1,127,321L86.8,268.36a3.24,3.24,0,0,0-5.81,2v85.14a3.24,3.24,0,0,1-3.24,3.24H54a3.24,3.24,0,0,1-3.23-3.24v-98a22.5,22.5,0,0,1,22.5-22.5H97a3.24,3.24,0,0,1,2.53,1.21l48.81,60.73A3.25,3.25,0,0,1,148.33,300.93Z"/><path class="cls-1" d="M291.18,315.06a36.73,36.73,0,0,1-5.29,19.55,44,44,0,0,1-14.83,14.32,74.6,74.6,0,0,1-22.47,8.56,134.27,134.27,0,0,1-28.68,2.86c-4.37,0-38.69-2.4-51-7.09-10-3.8-17.86-8.64-27.28-16.95a3.25,3.25,0,0,1-.39-4.47l15.11-18.76a3.24,3.24,0,0,1,5.05,0h0a3.28,3.28,0,0,0,.31.34,54.46,54.46,0,0,0,15.73,10.82,109.08,109.08,0,0,0,13.48,4.67,116.15,116.15,0,0,0,14.71,2.89,131.77,131.77,0,0,0,16.48,1,101.82,101.82,0,0,0,17.78-1.31A43.17,43.17,0,0,0,251.32,328a14.3,14.3,0,0,0,5.64-4.57,9.52,9.52,0,0,0,1.66-5.43,8,8,0,0,0-4-7.17c-3-2.05-8-3.07-14.86-3.07a90.17,90.17,0,0,0-10.1.6c-3.68.42-7.4.88-11.12,1.36-3.34.44-6.63.83-9.91,1.23l-1.29.14a96,96,0,0,1-10.73.67c-16.74,0-24.89-6-28.14-9.4a3.21,3.21,0,0,1-.16-4.25l14-17.38a3.22,3.22,0,0,1,4-.88,27.24,27.24,0,0,0,14.32,2.74c2.43-.18,5.4-.18,8.76-.55s7.09-.77,10.93-1.21,7.74-.85,11.76-1.22c12.28-1.16,22.9-.6,31.62,1.83a45,45,0,0,1,15,7.16A31.45,31.45,0,0,1,288,300.17,34.77,34.77,0,0,1,291.18,315.06Z"/><path class="cls-1" d="M214.77,262.35a115.13,115.13,0,0,1,13.47.75c4.29.49,8.62,1.17,12.83,2s8.31,2,11.89,3.09,7.3,2.45,10.6,3.83l.28.11a3.22,3.22,0,0,0,4.06-1.4l10.81-19.19a3.24,3.24,0,0,0-1.52-4.56l-.14-.06a126.52,126.52,0,0,0-13.68-5c-4.82-1.47-9.93-2.76-15.19-3.82A160.87,160.87,0,0,0,232,235.69c-3.92-.41-10.49-.74-10.49-.74h-.61a3.24,3.24,0,0,0-2.55,1.21L201.1,257.51a3.24,3.24,0,0,0,2.7,5.27l2.89-.17C209.29,262.44,212,262.35,214.77,262.35Z"/><path class="cls-1" d="M419.39,300.18a49.47,49.47,0,0,0,3.34-18.34,50.87,50.87,0,0,0-3.38-18.94,37,37,0,0,0-10.54-14.61,47.67,47.67,0,0,0-17.43-9,85.63,85.63,0,0,0-24.05-3H325.47A22.51,22.51,0,0,0,303,258.78v96.7a3.24,3.24,0,0,0,3.24,3.24h23.74a3.24,3.24,0,0,0,3.23-3.24V331.25a3.24,3.24,0,0,1,3.24-3.24l31.07.06a77.64,77.64,0,0,0,24.15-3.39A48.48,48.48,0,0,0,409,315,39.13,39.13,0,0,0,419.39,300.18Zm-28.11-18.34a21.66,21.66,0,0,1-1.44,8.05,14.6,14.6,0,0,1-4.11,5.81,20.25,20.25,0,0,1-7.17,3.85A35.45,35.45,0,0,1,367.92,301H336.41a3.24,3.24,0,0,1-3.24-3.24V266.69a3.24,3.24,0,0,1,3.24-3.24h31.51c8,0,14,1.66,17.83,4.93S391.28,276,391.28,281.84Z"/><path class="cls-1" d="M458.43,249.22,409.17,354.11a3.24,3.24,0,0,0,2.93,4.61h25a3.24,3.24,0,0,0,2.94-1.89l7.22-15.7a3.24,3.24,0,0,1,2.94-1.88H509.4a3.25,3.25,0,0,1,2.92,1.84l7.5,15.78a3.23,3.23,0,0,0,2.92,1.85h25a3.24,3.24,0,0,0,2.91-4.65l-56.09-116a3.23,3.23,0,0,0-2.91-1.83H478.79A22.49,22.49,0,0,0,458.43,249.22Zm35.43,64H465.28a3.23,3.23,0,0,1-2.93-4.59l14.1-30.42a3.23,3.23,0,0,1,5.85,0l14.48,30.42A3.23,3.23,0,0,1,493.86,313.19Z"/><path class="cls-1" d="M657,323.31a72.84,72.84,0,0,1-7.77,3.77,74.3,74.3,0,0,1-8.67,3A77.78,77.78,0,0,1,631.2,332a66.05,66.05,0,0,1-9.65.71A61.52,61.52,0,0,1,602.43,330a41.33,41.33,0,0,1-14-7.51,31.7,31.7,0,0,1-8.55-11.22,34.55,34.55,0,0,1-3-14.37A33.14,33.14,0,0,1,579.8,283a29.91,29.91,0,0,1,8.26-10.72,40.32,40.32,0,0,1,13.7-7.15,63.67,63.67,0,0,1,19-2.62,74.54,74.54,0,0,1,9,.56,83.19,83.19,0,0,1,8.89,1.6,60.84,60.84,0,0,1,8,2.49,34.73,34.73,0,0,1,6.37,3.23l.11.08a3.24,3.24,0,0,0,4.55-1l11-18a3.23,3.23,0,0,0-1.15-4.49l-.11-.06a86.34,86.34,0,0,0-22.85-9.06,114.6,114.6,0,0,0-26.73-2.94,90,90,0,0,0-30,4.71,67.63,67.63,0,0,0-22.73,13.06,56.55,56.55,0,0,0-14.35,19.74,60.49,60.49,0,0,0-5,24.41,64.88,64.88,0,0,0,4.81,24.94A55.71,55.71,0,0,0,565,342.1a68.17,68.17,0,0,0,23.66,13.41c9.3,3.19,20.2,4.81,32.41,4.81a102.62,102.62,0,0,0,27.32-3.56,83.65,83.65,0,0,0,22.83-9.93l.11-.06a3.24,3.24,0,0,0,1-4.41l-10.94-18a3.24,3.24,0,0,0-4.36-1.13Z"/><path class="cls-1" d="M716,328.24V314.43a3.24,3.24,0,0,1,3.24-3.24h60A3.23,3.23,0,0,0,782.5,308V287.11a3.24,3.24,0,0,0-3.24-3.23h-60a3.24,3.24,0,0,1-3.24-3.24V266.83a3.24,3.24,0,0,1,3.24-3.23h68.58a3.24,3.24,0,0,0,3.24-3.24V239.52a3.24,3.24,0,0,0-3.24-3.24H708.33a22.5,22.5,0,0,0-22.5,22.5v96.7a3.23,3.23,0,0,0,3.23,3.24H787.9a3.24,3.24,0,0,0,3.23-3.24V334.71a3.24,3.24,0,0,0-3.23-3.24H719.27A3.23,3.23,0,0,1,716,328.24Z"/><path class="cls-2" d="M164.6,280.73l32.67-40.54a3.23,3.23,0,0,0-2.52-5.26H162.08a3.23,3.23,0,0,0-3.23,3.23V278.7A3.23,3.23,0,0,0,164.6,280.73Z"/></svg>